<?xml version="1.0" encoding="UTF-8"?>
<svg xmlns="http://www.w3.org/2000/svg" xmlns:xlink="http://www.w3.org/1999/xlink" width="px" height="px" viewBox="0 0 24 24" version="1.1">
<g id="surface1">
<path style="fill-rule:nonzero;fill:rgb(100%,100%,100%);fill-opacity:1;stroke-width:2;stroke-linecap:butt;stroke-linejoin:round;stroke:rgb(0%,0%,0%);stroke-opacity:1;stroke-miterlimit:4;" d="M 10 11 L 10 8.988281 C 10 8.109375 10.589844 7.351562 11.441406 7.128906 L 11.488281 7.128906 C 12.089844 6.96875 12.726562 7.09375 13.21875 7.46875 C 13.710938 7.847656 14 8.429688 14 9.050781 L 14 12 L 14 10 C 14 9.121094 14.601562 8.351562 15.460938 8.128906 L 15.511719 8.128906 C 16.105469 7.972656 16.746094 8.097656 17.234375 8.476562 C 17.722656 8.855469 18.003906 9.441406 18 10.058594 L 18 13 L 18 11.058594 C 18 10.144531 18.621094 9.34375 19.511719 9.121094 C 20.109375 8.96875 20.742188 9.101562 21.230469 9.480469 C 21.714844 9.859375 22 10.441406 22 11.058594 L 22 14 C 22 14.601562 21.921875 15.269531 21.789062 15.96875 C 21.097656 19.628906 17.960938 22.324219 14.238281 22.449219 C 12.746094 22.511719 11.253906 22.511719 9.761719 22.449219 C 6.039062 22.324219 2.902344 19.628906 2.210938 15.96875 C 2.078125 15.269531 2 14.589844 2 14 L 2 12.511719 C 2 11.398438 2.898438 10.5 4.011719 10.5 C 4.546875 10.496094 5.0625 10.710938 5.441406 11.09375 C 5.820312 11.476562 6.027344 11.992188 6.019531 12.53125 L 6.011719 13.5 L 6.011719 3.5 C 6.011719 2.398438 6.910156 1.5 8.011719 1.5 C 9.113281 1.5 10.011719 2.394531 10.011719 3.5 L 10.011719 11 Z M 10 11 "/>
</g>
</svg>
